<svg xmlns="http://www.w3.org/2000/svg" width="3623" height="676" viewBox="0 0 3623 676" fill="none">
    <link xmlns="" type="text/css" rel="stylesheet" id="dark-mode-custom-link" />
    <link xmlns="" type="text/css" rel="stylesheet" id="dark-mode-general-link" />
    <style xmlns="" lang="en" type="text/css" id="dark-mode-custom-style" />
    <style xmlns="" lang="en" type="text/css" id="dark-mode-native-style" />
    <style xmlns="" lang="en" type="text/css" id="dark-mode-native-sheet" />
    <path
        d="M2791 122C2631.81 122 2503 246.019 2503 398.977C2503 551.934 2632 676 2791 676C2950 676 3079 551.981 3079 398.977C3079 245.973 2950.24 122 2791 122ZM2792.81 523.647C2733.63 523.647 2685.69 467.907 2685.69 398.977C2685.69 330.046 2733.63 274.353 2792.81 274.353C2851.99 274.353 2899.93 330.093 2899.93 398.977C2899.93 467.861 2851.99 523.647 2792.81 523.647Z"
        fill="#FFFFFF" />
    <path
        d="M2791 122C2631.81 122 2503 246.019 2503 398.977C2503 551.934 2632 676 2791 676C2950 676 3079 551.981 3079 398.977C3079 245.973 2950.24 122 2791 122ZM2792.81 523.647C2733.63 523.647 2685.69 467.907 2685.69 398.977C2685.69 330.046 2733.63 274.353 2792.81 274.353C2851.99 274.353 2899.93 330.093 2899.93 398.977C2899.93 467.861 2851.99 523.647 2792.81 523.647Z"
        fill="url(#paint0_linear_537_156)" fill-opacity="0.48" />
    <path
        d="M3623 122.17V675.6H3444.07L3229.07 383.161V675.6H3033.09V644.986C3033.09 644.986 3141.91 549.906 3143.92 408.927C3146.12 251.146 3033.09 157.144 3033.09 157.144V122.17H3208.79L3428.5 420V122.17L3623 122.17Z"
        fill="#FFFFFF" />
    <path
        d="M3623 122.17V675.6H3444.07L3229.07 383.161V675.6H3033.09V644.986C3033.09 644.986 3141.91 549.906 3143.92 408.927C3146.12 251.146 3033.09 157.144 3033.09 157.144V122.17H3208.79L3428.5 420V122.17L3623 122.17Z"
        fill="url(#paint1_linear_537_156)" fill-opacity="0.48" />
    <path
        d="M858.849 122.169L1310.49 122.17L1281.73 241.104H1030.63V337.997H1245.08V449.487H1030.63V675.602H858.849V122.169Z"
        fill="#FFFFFF" />
    <path
        d="M858.849 122.169L1310.49 122.17L1281.73 241.104H1030.63V337.997H1245.08V449.487H1030.63V675.602H858.849V122.169Z"
        fill="url(#paint2_linear_537_156)" fill-opacity="0.48" />
    <path
        d="M1498.24 584.245H1304.03L1277.08 675.602H1102.41L1310.49 122.17H1497.02L1692.07 641.061L1705.06 675.602H1525.93L1498.24 584.245ZM1462.77 464.574L1401.67 265.646L1341.21 464.574H1462.77Z"
        fill="#FFFFFF" />
    <path
        d="M1498.24 584.245H1304.03L1277.08 675.602H1102.41L1310.49 122.17H1497.02L1692.07 641.061L1705.06 675.602H1525.93L1498.24 584.245ZM1462.77 464.574L1401.67 265.646L1341.21 464.574H1462.77Z"
        fill="url(#paint3_linear_537_156)" fill-opacity="0.48" />
    <path d="M1692.07 641.061L1705.06 675.602H2130.05V539.325H1863.12V122.17H1692.07V641.061Z"
        fill="#FFFFFF" />
    <path d="M1692.07 641.061L1705.06 675.602H2130.05V539.325H1863.12V122.17H1692.07V641.061Z"
        fill="url(#paint4_linear_537_156)" fill-opacity="0.48" />
    <path
        d="M2554 159.182C2554 159.182 2525.54 180.103 2511.31 198.09C2494.93 220.946 2480.13 244.889 2467.01 269.753C2467.01 269.753 2347.05 244.761 2291.46 311.028C2281.98 322.104 2241.33 360.444 2270.31 459.608C2280.08 492.978 2324.1 529.567 2386.56 536.288C2405.25 538.276 2461.46 528.62 2461.46 528.62C2461.46 528.62 2490.2 577.137 2501.82 591.905C2512.31 605.206 2548.88 640.753 2548.88 640.753C2548.88 640.753 2449.7 681.981 2354.83 675.259C2336.56 673.989 2229.66 678.467 2137.12 573.349C2122.78 557.063 2108.79 538.147 2095.52 516.171C2086.56 501.356 2054.21 381.981 2095.52 293.704C2109.47 263.931 2160.74 165.838 2271.02 135.545C2428.83 92.3293 2554 159.182 2554 159.182Z"
        fill="#FFFFFF" />
    <path
        d="M2554 159.182C2554 159.182 2525.54 180.103 2511.31 198.09C2494.93 220.946 2480.13 244.889 2467.01 269.753C2467.01 269.753 2347.05 244.761 2291.46 311.028C2281.98 322.104 2241.33 360.444 2270.31 459.608C2280.08 492.978 2324.1 529.567 2386.56 536.288C2405.25 538.276 2461.46 528.62 2461.46 528.62C2461.46 528.62 2490.2 577.137 2501.82 591.905C2512.31 605.206 2548.88 640.753 2548.88 640.753C2548.88 640.753 2449.7 681.981 2354.83 675.259C2336.56 673.989 2229.66 678.467 2137.12 573.349C2122.78 557.063 2108.79 538.147 2095.52 516.171C2086.56 501.356 2054.21 381.981 2095.52 293.704C2109.47 263.931 2160.74 165.838 2271.02 135.545C2428.83 92.3293 2554 159.182 2554 159.182Z"
        fill="url(#paint5_linear_537_156)" fill-opacity="0.48" />
    <path
        d="M523.423 303.365L534.398 307.088L543.658 300.181L543.511 311.741L552.968 318.403L541.894 321.832L538.465 332.854L531.801 323.449L520.238 323.596L527.147 314.337L523.423 303.365Z"
        fill="#FFFFFF" />
    <path
        d="M530.772 365.037C519.881 364.729 509.557 360.116 502.062 352.21C494.568 344.304 490.515 333.75 490.791 322.86C490.729 316.017 492.312 309.26 495.407 303.156C498.502 297.052 503.019 291.781 508.577 287.787C501.051 289.442 494.067 292.976 488.276 298.06C482.486 303.144 478.078 309.611 475.464 316.859C472.85 324.106 472.115 331.898 473.328 339.506C474.541 347.115 477.663 354.292 482.401 360.368C487.139 366.444 493.339 371.221 500.424 374.253C507.508 377.285 515.245 378.473 522.913 377.707C530.581 376.94 537.929 374.244 544.273 369.87C550.617 365.496 555.749 359.586 559.19 352.692C555.551 356.586 551.152 359.692 546.263 361.815C541.375 363.938 536.102 365.035 530.772 365.037V365.037Z"
        fill="#FFFFFF" />
    <path
        d="M266.88 607.415C264.088 604.182 261.295 600.802 258.453 597.618C261.246 600.9 264.039 604.28 266.88 607.415Z"
        fill="#FFFFFF" />
    <path
        d="M316.807 446.793L311.418 450.222L317.738 449.928C322.271 449.559 326.826 449.559 331.359 449.928C333.535 450.178 335.673 450.688 337.729 451.446C338.744 451.824 339.727 452.283 340.668 452.818H341.06C336.887 454.334 332.995 456.536 329.546 459.333C325.464 462.837 321.93 466.931 319.061 471.481C316.072 475.841 313.427 480.348 310.144 484.315C308.542 486.309 306.753 488.146 304.803 489.802C302.806 491.416 300.675 492.859 298.434 494.112C296.18 495.435 293.926 496.709 291.574 497.933C289.223 499.158 286.92 500.187 284.519 501.215C282.122 502.21 279.668 503.06 277.17 503.762C274.678 504.486 272.141 505.042 269.575 505.428C266.997 505.843 264.395 506.088 261.785 506.163H257.865H253.946C251.349 506.163 248.752 505.673 246.155 505.183C243.558 504.693 241.011 504.154 238.463 503.615C241.011 504.252 243.362 504.987 246.106 505.428C248.85 505.869 251.3 506.359 253.897 506.702L257.816 507.044H261.785C264.422 507.013 267.056 506.833 269.673 506.506C272.297 506.15 274.898 505.643 277.464 504.987C280.06 504.301 282.363 503.518 285.058 502.587C287.753 501.656 289.958 500.578 292.309 499.403C294.661 498.227 297.209 497.002 299.316 495.729C301.705 494.497 303.969 493.037 306.077 491.369C308.169 489.686 310.104 487.817 311.859 485.785C315.167 481.671 318.258 477.387 321.119 472.951C323.899 468.639 327.319 464.774 331.261 461.488C335.288 458.398 339.858 456.088 344.735 454.679L347.479 453.896L345.274 452.132C344.297 451.342 343.265 450.622 342.187 449.977C341.106 449.38 339.994 448.84 338.855 448.36C336.581 447.488 334.214 446.879 331.8 446.548C329.802 446.281 327.789 446.134 325.774 446.107C326.434 445.944 327.105 445.829 327.782 445.764C330.992 444.932 334.273 444.408 337.582 444.197C341.011 443.952 344.49 443.952 348.165 443.56C351.839 443.168 355.22 442.629 358.699 441.992C365.656 440.67 372.467 439.2 379.326 438.367C386.033 437.342 392.87 437.524 399.512 438.906C402.71 439.69 405.767 440.962 408.577 442.678C409.962 443.553 411.287 444.519 412.545 445.568L416.024 448.703C411.908 453.308 402.403 447.528 400.051 455.071C404.608 452.132 409.459 457.57 413.721 457.814C414.547 457.864 415.373 457.731 416.142 457.425C416.91 457.12 417.602 456.648 418.168 456.045C418.734 455.442 419.16 454.722 419.416 453.935C419.672 453.149 419.752 452.316 419.65 451.495C420.127 451.851 420.635 452.163 421.169 452.426C422.931 453.249 424.791 453.842 426.705 454.19L429.351 454.63L432.144 454.973L437.435 455.414H439.346C441.715 455.975 443.918 457.089 445.774 458.664C447.631 460.239 449.088 462.231 450.027 464.476C438.562 459.921 426.264 462.517 414.652 465.407C417.944 465.122 421.23 466.026 423.912 467.954C416.22 476.331 395.642 469.963 385.206 475.792C386.135 475.718 387.069 475.718 387.998 475.792C396.23 496.268 371.487 532.174 348.263 527.471C313.966 520.515 352.868 480.788 346.842 464.721C330.869 497.737 310.536 529.088 270.212 522.818C280.523 525.814 290.403 530.128 299.61 535.652C305.834 539.07 311.002 544.129 314.552 550.278C318.102 556.427 319.899 563.431 319.747 570.529C319.784 587.548 315.285 604.27 306.714 618.975C313.28 621.18 330.575 625.931 330.869 626.127C331.751 625.098 333.172 622.551 334.005 621.523C337.141 617.751 340.08 613.734 342.873 609.717C345.666 605.7 348.312 601.537 350.81 597.275C353.309 593.013 355.71 588.703 357.817 584.343C359.924 579.983 362.128 575.526 364.137 571.068C366.146 566.61 368.106 562.153 370.262 557.891C374.308 547.142 379.088 536.683 384.569 526.589C390.017 516.497 396.276 506.865 403.285 497.786C406.753 493.311 410.57 489.118 414.701 485.246C416.769 483.327 418.998 481.589 421.365 480.054C423.494 478.618 425.895 477.634 428.42 477.164C428.958 477.116 429.499 477.116 430.037 477.164H430.968H431.997C433.61 477.475 435.254 477.606 436.896 477.555C440.119 477.573 443.309 476.905 446.254 475.596C447.212 475.051 448.267 474.701 449.361 474.566C450.454 474.432 451.563 474.515 452.624 474.812C453.391 475.238 453.968 475.938 454.241 476.772C454.595 477.845 454.761 478.972 454.731 480.103L454.388 492.692L459.287 481.131C460.807 477.669 461.734 473.977 462.031 470.208C462.356 466.138 461.247 462.083 458.895 458.745C456.382 455.622 452.956 453.362 449.096 452.279C445.56 451.3 441.931 450.692 438.268 450.467L432.83 450.663L430.331 450.369L427.832 449.977C426.287 449.674 424.776 449.214 423.324 448.605C421.941 447.898 420.67 446.99 419.552 445.911C418.327 444.833 416.955 443.511 415.632 442.384C414.211 441.161 412.686 440.063 411.075 439.102C407.872 437.163 404.383 435.742 400.737 434.889C393.595 433.391 386.24 433.208 379.032 434.351C371.977 435.232 365.068 436.751 358.209 438.073C354.779 438.71 351.349 439.347 347.969 439.739C344.588 440.131 341.06 440.229 337.533 440.572C333.907 440.841 330.315 441.448 326.802 442.384C323.266 443.337 319.895 444.824 316.807 446.793V446.793Z"
        fill="#FFFFFF" />
    <path
        d="M12.2978 183.645C12.8858 187.466 13.6697 191.189 14.3557 194.961L16.8545 206.227L19.5982 217.396L23.0279 228.369L26.9476 239.243C28.3195 242.868 29.9364 246.346 31.4062 249.922C32.8761 253.498 34.689 256.878 36.3058 260.356C37.9227 263.834 39.8335 267.214 41.6954 270.594L44.4881 275.492L47.5749 280.391C49.6817 283.624 51.5435 287.004 53.8953 290.188L60.7058 299.495L68.3001 308.606C69.4787 310.11 70.7381 311.549 72.0728 312.917L76.0415 317.13L79.9611 321.391L84.1258 325.359C86.9676 327.955 89.7113 330.649 92.6021 333.148L101.519 340.446C104.41 342.945 107.693 345.002 110.78 347.304L115.434 350.635C116.218 351.174 116.953 351.762 117.786 352.252L120.236 353.77L130.035 359.747L132.485 361.216L134.983 362.539L139.883 365.184C143.264 366.898 146.547 368.858 150.074 370.082L160.51 374.638C162.274 375.373 163.989 376.206 165.753 376.891L171.093 378.851L181.775 382.623C188.977 385.023 196.473 386.835 203.578 388.893C196.62 385.954 189.614 383.21 182.754 380.222L172.563 375.324L167.664 372.973C165.998 372.14 164.381 371.209 162.764 370.327L152.965 365.037C149.682 363.273 146.547 361.167 143.166 359.257L138.266 356.367L135.865 354.897L133.563 353.33L124.449 346.912C121.363 344.855 118.57 342.406 115.63 340.153C112.69 337.899 109.751 335.695 107.056 333.148L98.8246 325.702C96.1298 323.204 93.631 320.461 91.0342 317.864C89.7113 316.591 88.3884 315.268 87.1145 313.946L83.4889 309.782L79.8631 305.667C78.606 304.316 77.4282 302.893 76.3354 301.405L69.574 292.686L63.6945 283.82C61.5387 280.832 59.7748 277.599 57.815 274.513L54.9243 269.614L52.2785 264.716C50.5636 261.483 48.7508 258.299 47.3789 254.919C46.007 251.539 44.0962 248.355 42.7733 245.122C41.4504 241.889 39.5885 238.362 38.2657 235.129L34.297 224.597L31.0633 214.065L28.1235 203.435L25.6247 192.659L23.5179 181.784C22.244 174.485 21.1171 167.088 20.3822 159.839C19.5982 153.862 19.5982 147.886 19.1573 142.057C19.1573 142.498 19.5982 142.988 19.8432 143.429C20.9211 145.584 21.999 147.69 23.1749 149.699C24.3508 151.707 25.5267 153.862 26.7516 155.871L30.4753 161.651C31.7002 163.659 33.1211 165.521 34.444 167.48C35.7669 169.44 37.0898 171.35 38.4616 173.211C39.8335 175.073 41.2054 177.032 42.6263 178.894L46.8889 184.478L51.2986 189.915C57.2271 197.116 63.3515 204.17 69.819 210.881C67.0262 207.158 64.3315 203.337 61.6857 199.516C59.0399 195.696 56.3941 191.924 53.8463 188.054C51.2986 184.184 48.9958 180.265 46.252 176.347L42.6263 170.468C41.4014 168.509 40.2745 166.55 39.1476 164.492C36.7958 160.524 34.64 156.508 32.4351 152.442C31.4062 150.433 30.4263 148.327 29.3974 146.319C28.3685 144.31 27.4866 142.057 26.6046 140.098C25.7227 138.138 24.7428 135.934 24.0569 133.778C23.3709 131.623 22.538 129.566 21.901 127.361L20.1862 120.993L19.2553 114.674L14.6986 81.9033L10.583 114.674C9.67635 122.349 9.20198 130.068 9.16211 137.795C9.16211 145.486 9.16211 153.128 9.99504 160.769C10.828 168.411 11.2199 176.053 12.2978 183.645Z"
        fill="#FFFFFF" />
    <path
        d="M16.5115 306.451C18.3733 311.349 20.5781 316.248 22.8319 321.146C24.0078 323.497 25.2327 326.045 26.5066 328.151C27.7805 330.257 29.1034 332.707 30.4753 334.96C31.8472 337.213 33.2191 339.467 34.7379 341.622C36.2568 343.777 37.6777 345.982 39.2456 348.137L44.1451 354.456L49.0447 360.481C52.6214 364.351 56.2961 368.172 60.1668 371.748C62.0776 373.609 64.0865 375.275 66.1443 376.989C68.2021 378.704 70.162 380.418 72.3178 381.888C74.4736 383.357 76.4824 385.072 78.7362 386.492L85.3507 390.803C89.9563 393.448 94.4639 396.191 99.2655 398.396C104.067 400.6 109.065 402.657 113.719 404.617C116.169 405.547 118.619 406.282 121.216 407.115C123.668 408.014 126.171 408.766 128.712 409.368L136.306 411.279C138.854 411.866 141.206 412.258 143.999 412.748C149.118 413.737 154.286 414.456 159.481 414.904C164.626 415.54 169.82 415.54 174.964 415.785C180.109 416.03 185.351 415.785 190.496 415.491L175.16 413.728L167.566 412.503C165.018 412.111 162.666 411.768 160.02 411.181C155.121 410.103 150.221 409.123 145.322 407.703C142.872 407.017 140.422 406.478 137.972 405.694L130.77 403.294C128.369 402.559 125.87 401.629 123.665 400.698C121.461 399.767 118.766 398.934 116.659 397.857C112.102 395.75 107.497 393.693 103.136 391.195C98.7755 388.697 94.4639 386.296 90.2013 383.553L84.0278 379.242C81.97 377.822 80.0591 376.156 78.0993 374.638C77.1194 373.854 76.0905 373.168 75.1595 372.336L72.3178 369.886C70.4559 368.221 68.4961 366.653 66.7812 364.988C63.1066 361.608 59.7258 357.934 56.3451 354.211L51.4455 348.48L46.8399 342.553C45.3211 340.544 43.9002 338.487 42.4303 336.429C40.9604 334.372 39.7355 332.266 38.3146 330.159C36.8938 328.053 35.7669 325.849 34.493 323.693L30.8673 317.08C28.5645 312.623 26.3106 308.116 24.3508 303.511C23.3219 301.16 22.391 298.613 21.4601 296.458L22.342 297.29L26.0167 300.572L29.7894 303.609C31.0632 304.638 32.3861 305.52 33.709 306.451C36.3058 308.361 39.0496 310.076 41.7444 311.79C44.4391 313.504 47.2319 315.072 50.0736 316.688C55.6892 319.721 61.4626 322.452 67.3692 324.869C64.6254 323.301 61.9307 321.587 59.2849 319.97C56.6391 318.354 53.9933 316.542 51.3965 314.68C48.7998 312.819 46.301 310.467 43.8022 308.606C41.3034 306.745 38.9026 304.736 36.5018 302.679C34.101 300.621 31.8472 298.515 29.3974 296.36L26.1637 293.029C25.0858 291.951 24.2038 290.726 23.1749 289.551L21.705 287.787L20.4311 285.926C19.5415 284.735 18.7235 283.491 17.9813 282.203C17.3444 280.929 16.5115 279.656 15.9725 278.333L14.6986 274.316L7.74121 276.031C8.63729 281.259 9.84806 286.428 11.3669 291.51C12.8368 296.605 14.6986 301.601 16.5115 306.451Z"
        fill="#FFFFFF" />
    <path
        d="M33.2682 411.034C35.081 412.748 36.9429 414.365 38.8047 415.932C40.6666 417.5 42.7244 419.018 44.6842 420.537C46.6441 422.056 48.7999 423.329 50.8577 424.75C54.9997 427.416 59.2851 429.853 63.6946 432.048C65.8994 433.224 68.2023 434.106 70.5051 435.086C72.7764 436.074 75.0989 436.941 77.4625 437.682C79.8143 438.417 82.1171 439.298 84.5179 439.886L91.7203 441.748C94.1211 442.335 96.6199 442.678 98.9717 443.168L102.597 443.805C103.822 443.805 105.047 444.099 106.272 444.246L113.572 445.029L120.922 445.421C125.821 445.764 130.721 445.421 135.621 445.421C140.52 445.421 145.42 444.687 150.319 444.344C155.219 444.001 160.119 443.021 164.724 442.286C169.33 441.552 174.229 440.425 178.982 439.347L192.995 435.673L178.688 437.878L164.381 439.592C159.482 439.984 154.582 440.229 150.025 440.621C145.469 441.013 140.226 440.915 135.67 440.621C131.113 440.327 125.87 440.621 121.363 439.886L114.258 439.249L107.252 438.172L103.724 437.633L100.246 436.898C97.9427 436.359 95.6399 435.967 93.3371 435.379L86.5267 433.42C84.2729 432.783 82.0681 431.901 79.8633 431.167L76.5316 429.942L73.4938 428.717C71.338 427.787 69.1822 426.954 67.1243 425.827C62.9248 423.738 58.8363 421.433 54.8754 418.92L48.9959 414.904L43.5083 410.544L38.2658 405.646C36.5999 403.98 34.8851 402.364 33.3662 400.747C30.1918 397.374 27.23 393.808 24.4979 390.068C21.731 386.286 19.1634 382.362 16.8056 378.312C15.3357 375.716 14.0128 373.07 12.6899 370.376L14.0618 371.454C20.0366 375.378 26.4087 378.662 33.0722 381.251C46.1128 386.438 59.6604 390.247 73.4938 392.616C66.7814 390.656 60.1669 388.452 53.6015 386.051C50.3678 384.827 47.085 383.602 43.8023 382.231C40.5196 380.859 37.4328 379.488 34.2971 377.969C28.0821 375.063 22.1871 371.517 16.7076 367.388C15.3847 366.36 14.1108 365.282 12.8859 364.204C11.7965 363.1 10.7662 361.939 9.79917 360.726C8.85223 359.496 8.01604 358.185 7.30038 356.807C7.12939 356.533 6.99746 356.236 6.90842 355.926C6.56545 354.799 6.17348 353.672 5.8795 352.595L0 353.721C1.08593 358.605 2.57731 363.389 4.45862 368.025C6.31432 372.645 8.42437 377.158 10.7791 381.545C13.1171 385.917 15.7528 390.123 18.6674 394.134C21.5567 398.182 24.6987 402.043 28.0746 405.695C29.7405 407.507 31.5533 409.27 33.2682 411.034Z"
        fill="#FFFFFF" />
    <path
        d="M39.5399 460.802C42.9696 463.252 46.4973 465.701 50.074 467.66C53.6507 469.62 57.2764 471.873 61.0001 473.832C64.7238 475.792 68.4965 477.555 72.3672 479.27L78.1977 481.621L84.1262 483.776C88.1438 485.05 92.1615 486.324 96.2772 487.303C98.286 487.891 100.393 488.332 102.451 488.724C104.508 489.116 106.566 489.557 108.673 489.752C110.78 489.948 112.838 490.389 114.994 490.536L121.314 491.026C125.525 491.246 129.744 491.246 133.955 491.026H137.14L140.275 490.634C142.333 490.291 144.44 490.144 146.498 489.654L152.72 488.332C154.729 487.842 156.738 487.107 158.747 486.519L161.687 484.952L164.626 483.776C166.586 482.993 168.546 482.307 170.457 481.425C174.264 479.673 177.961 477.694 181.53 475.498C183.334 474.497 185.084 473.401 186.773 472.216L191.672 468.542C193.381 467.334 195.017 466.025 196.572 464.623L201.471 460.606C197.993 462.811 194.71 465.505 191.133 467.317L185.842 470.403C184.078 471.432 182.167 472.216 180.354 473.147C176.717 474.97 172.988 476.605 169.183 478.045C167.321 478.78 165.361 479.319 163.451 479.955L160.56 480.837C159.58 481.131 158.6 481.327 157.62 481.572C155.66 482.013 153.7 482.552 151.74 482.895L145.763 483.874C143.803 484.217 141.745 484.266 139.785 484.511H136.797H133.759C129.741 484.511 125.773 484.511 121.755 484.511L115.778 483.874C113.769 483.874 111.809 483.237 109.849 482.944C107.889 482.65 105.88 482.209 103.921 481.768C101.961 481.327 100.001 480.935 98.09 480.396C94.1703 479.417 90.3486 478.143 86.527 476.869L80.7945 475.155L75.2089 472.804C71.5342 471.187 67.8595 469.522 64.2338 467.905C60.6081 466.289 57.1294 464.133 53.6507 462.076C50.172 460.019 46.7423 457.863 43.3616 455.659L42.9206 455.316H43.5086C45.1225 455.72 46.7584 456.031 48.4082 456.247C50.074 456.541 51.6909 456.786 53.3078 456.932C54.9246 457.079 56.5905 457.275 58.2074 457.373L63.1069 457.618C64.7238 457.618 66.3897 457.618 68.0065 457.618C69.6234 457.618 71.2893 457.618 72.9061 457.618C74.523 457.618 76.1888 457.618 77.8057 457.275C84.4133 456.741 90.9672 455.676 97.4041 454.091C94.1703 454.483 90.8876 454.728 87.6049 454.875C84.3222 455.022 81.1374 454.875 77.8057 454.875C76.1888 454.875 74.572 454.875 72.9061 454.875C71.2403 454.875 69.7214 454.875 68.0065 454.875C66.2917 454.875 64.7728 454.875 63.1069 454.483L58.2074 453.895L53.3078 453.161C51.7399 453.161 50.172 452.573 48.6532 452.181C47.3072 451.737 45.9828 451.23 44.6845 450.662L40.1769 449.291L35.7672 447.576C34.3421 446.986 32.9517 446.316 31.6026 445.568C30.2049 444.907 28.8615 444.137 27.5849 443.266L23.7633 440.669L19.8926 445.274C23.0283 448.262 26.213 450.907 29.6918 453.552C33.1705 456.198 36.1102 458.402 39.5399 460.802Z"
        fill="#FFFFFF" />
    <path
        d="M87.0659 535.407C88.8787 535.75 90.6916 536.142 92.5044 536.435L97.894 537.219L103.382 537.66C105.194 537.66 107.056 537.66 108.869 537.66C110.682 537.66 112.544 537.66 114.357 537.66C116.191 537.642 118.022 537.527 119.844 537.317C123.47 537.317 127.096 536.386 130.672 535.799C134.242 535.096 137.775 534.213 141.255 533.153C144.783 532.174 148.115 530.753 151.544 529.48C154.974 528.206 158.208 526.638 161.344 524.581L166.243 521.985L170.8 519.144C173.887 517.282 176.728 515.029 179.619 512.923C182.51 510.816 185.107 508.367 187.85 506.065C190.594 503.762 192.75 501.166 195.543 498.668L186.968 504.938C183.98 506.848 181.138 508.955 178.1 510.767C175.062 512.58 172.123 514.441 168.938 515.96L164.332 518.409L159.433 520.564L157.032 521.593L154.582 522.524L149.683 524.385C146.351 525.414 143.117 526.589 139.883 527.324C136.65 528.059 133.122 528.745 129.741 529.431C126.361 530.116 122.931 530.361 119.501 530.508C117.786 530.508 116.022 530.508 114.308 530.508C112.593 530.508 110.878 530.508 109.163 530.508C107.448 530.508 105.733 530.508 104.018 530.263L99.1189 529.724L94.2193 528.941L89.3197 527.961C85.988 527.177 82.6563 526.345 79.5205 525.316C76.3848 524.287 72.9551 523.16 69.7213 521.887C66.4876 520.613 63.3519 519.144 60.3141 517.576L59.5302 517.184C60.4121 517.184 61.294 517.184 62.225 517.184C63.7586 517.282 65.2969 517.282 66.8306 517.184H71.4852C73.0041 517.184 74.5229 516.841 76.0418 516.694C77.5607 516.548 79.0796 516.205 80.5984 515.96C82.101 515.692 83.5891 515.349 85.0571 514.931C86.5269 514.539 88.0458 514.245 89.4667 513.755C90.8876 513.265 92.4064 512.874 93.8273 512.335C99.5173 510.281 104.984 507.655 110.143 504.497C107.39 505.703 104.578 506.765 101.716 507.681C98.9229 508.612 96.0321 509.396 93.1414 510.13L88.8297 511.061C87.3599 511.404 85.89 511.6 84.4691 511.845C83.0482 512.09 81.5294 512.237 80.0595 512.384C78.6126 512.571 77.1572 512.685 75.6988 512.727H71.2892H66.9286C65.4849 512.652 64.0458 512.505 62.6169 512.286C61.1841 512.19 59.7597 511.993 58.3543 511.698L54.0917 510.865L49.976 509.592L47.1342 509.445L45.1744 508.612L41.2057 506.946L21.9014 498.766L37.923 512.09C40.7967 514.4 43.7896 516.559 46.8893 518.556C49.976 520.515 53.1117 522.426 56.3455 524.091C59.5792 525.757 62.8619 527.275 66.1446 528.745C69.4274 530.214 72.9551 531.39 76.3848 532.468C79.8876 533.646 83.4535 534.627 87.0659 535.407V535.407Z"
        fill="#FFFFFF" />
    <path
        d="M118.08 582.383C119.451 582.456 120.825 582.456 122.196 582.383C127.686 582.348 133.156 581.724 138.512 580.522C141.158 579.787 143.803 579.101 146.351 578.121C147.656 577.696 148.932 577.189 150.173 576.603C151.45 576.095 152.694 575.506 153.896 574.839L157.473 572.929L160.903 570.725C163.167 569.218 165.343 567.583 167.419 565.826C169.457 564.083 171.403 562.235 173.25 560.291C175.103 558.359 176.853 556.332 178.492 554.217C180.207 552.159 181.53 549.857 183.049 547.702C184.568 545.546 185.695 543.146 187.018 540.844L182.118 546.82C180.256 548.681 178.59 550.69 176.68 552.404L173.887 555.098C172.956 555.98 171.878 556.764 170.947 557.597C169.036 559.311 166.88 560.781 164.872 562.495C163.843 563.279 162.716 563.867 161.638 564.552C160.56 565.238 159.531 565.924 158.404 566.512L155.072 568.324L151.594 569.843C150.467 570.382 149.242 570.725 148.115 571.214C146.988 571.704 145.763 572.096 144.538 572.439C142.154 573.17 139.734 573.775 137.287 574.252C134.837 574.692 132.387 575.035 129.888 575.28C127.399 575.541 124.895 575.656 122.392 575.623C121.118 575.623 119.893 575.623 118.619 575.623C117.346 575.623 116.121 575.623 114.847 575.623C112.348 575.329 109.947 575.035 107.399 574.594C104.852 574.154 102.5 573.664 99.952 573.027C97.4042 572.39 95.0524 571.655 92.7006 570.872L88.6339 569.451L90.3978 569.157C92.5536 568.618 94.7584 568.275 96.8163 567.541L100.001 566.561L103.137 565.434C104.166 565.042 105.146 564.602 106.174 564.112C107.203 563.622 108.183 563.23 109.114 562.642C111.071 561.633 112.954 560.488 114.749 559.213C116.499 557.932 118.138 556.507 119.648 554.951C121.203 553.495 122.57 551.849 123.715 550.053C122.247 551.625 120.603 553.022 118.815 554.217C117.09 555.449 115.272 556.547 113.377 557.499C111.511 558.431 109.598 559.265 107.644 559.997C106.664 560.438 105.636 560.683 104.656 561.026C103.675 561.371 102.678 561.665 101.667 561.907L98.6781 562.691L95.5914 563.279C93.5335 563.769 91.4267 563.916 89.4179 564.259C88.389 564.259 87.3111 564.259 86.2821 564.552H83.1464H76.8749L66.3408 564.846L75.4541 570.235C77.8211 571.617 80.2578 572.875 82.7544 574.007C85.2042 575.182 87.654 576.162 90.2508 577.142C95.3618 578.956 100.603 580.381 105.929 581.403C108.602 581.926 111.3 582.302 114.014 582.53C115.386 582.285 116.758 582.334 118.08 582.383Z"
        fill="#FFFFFF" />
    <path
        d="M158.943 613.097C160.854 612.264 162.863 611.578 164.724 610.599L170.163 607.512C171.927 606.337 173.593 605.063 175.063 603.888C176.807 602.672 178.446 601.312 179.962 599.822C181.504 598.443 182.976 596.988 184.372 595.462C185.695 593.944 186.969 592.327 188.292 590.564C189.605 589.034 190.785 587.395 191.819 585.665L195.053 580.767C196.033 579.003 196.817 577.093 197.699 575.28C198.581 573.468 199.316 571.606 200.148 569.794C198.924 571.41 197.65 572.978 196.474 574.692C195.298 576.407 194.122 577.876 192.897 579.591L188.977 584C187.746 585.518 186.42 586.957 185.009 588.31C183.588 589.633 182.167 590.955 180.795 592.327C179.423 593.699 177.806 594.727 176.288 595.952C174.752 597.199 173.113 598.313 171.388 599.283C169.771 600.312 168.203 601.389 166.488 602.32L161.589 604.867C159.874 605.7 158.061 606.288 156.297 606.974C154.542 607.654 152.741 608.21 150.908 608.639C149.108 609.169 147.274 609.578 145.42 609.864C143.557 610.221 141.676 610.483 139.786 610.648C139.198 610.648 138.561 610.648 137.924 610.648L139.59 609.668C140.423 609.178 141.206 608.492 142.039 607.953C142.841 607.358 143.609 606.72 144.342 606.043C145.077 605.357 145.861 604.769 146.547 604.034C147.233 603.3 147.919 602.614 148.556 601.879L150.418 599.577L152.133 597.177C153.151 595.595 154.083 593.96 154.925 592.278C155.768 590.551 156.441 588.747 156.934 586.89C156.012 588.598 154.964 590.235 153.798 591.788C152.67 593.291 151.46 594.73 150.173 596.099L148.213 598.058L146.155 599.871L144.048 601.585C143.313 602.173 142.529 602.614 141.794 603.153C141.056 603.672 140.287 604.147 139.492 604.573L137.14 605.847L134.69 606.974C133.899 607.165 133.097 607.312 132.289 607.414C131.458 607.743 130.607 608.021 129.741 608.247L127.145 608.835C126.29 609.05 125.422 609.214 124.548 609.325L121.902 609.766L106.86 612.117L121.559 615.938C123.649 616.513 125.778 616.938 127.929 617.211C130.035 617.505 132.142 617.603 134.249 617.701C136.356 617.799 138.463 617.701 140.521 617.701C142.578 617.701 144.734 617.358 146.792 616.918C148.865 616.59 150.911 616.115 152.916 615.497C154.975 614.828 156.988 614.026 158.943 613.097V613.097Z"
        fill="#FFFFFF" />
    <path
        d="M222.784 601.39L219.404 605.064C218.35 606.338 217.203 607.533 215.974 608.639C214.798 609.717 213.573 610.795 212.397 611.97C211.195 613.034 209.935 614.032 208.624 614.959C207.394 615.992 206.084 616.926 204.705 617.751C203.333 618.583 202.01 619.514 200.638 620.298L196.375 622.355C194.955 623.041 193.436 623.531 191.966 624.119C190.496 624.707 188.928 625.049 187.458 625.49C185.988 625.931 184.371 626.176 182.853 626.519C181.411 626.807 179.956 627.019 178.492 627.156C179.08 626.764 179.668 626.274 180.256 625.833C180.968 625.349 181.639 624.808 182.265 624.217C182.905 623.667 183.51 623.078 184.078 622.453C184.665 621.865 185.253 621.278 185.792 620.641C186.848 619.341 187.829 617.984 188.732 616.575C189.616 615.212 190.402 613.788 191.084 612.313C191.783 610.742 192.309 609.1 192.652 607.415C191.839 608.805 190.922 610.131 189.908 611.383C188.946 612.615 187.915 613.792 186.821 614.91C185.738 616.018 184.593 617.065 183.392 618.045L181.579 619.465C180.991 619.955 180.305 620.298 179.717 620.739C179.093 621.177 178.438 621.57 177.757 621.914C177.071 622.257 176.434 622.649 175.748 622.943L173.69 623.874C173.024 624.169 172.336 624.415 171.633 624.609C170.929 624.881 170.209 625.11 169.477 625.294L167.321 625.784C165.9 626.127 164.381 626.225 162.96 626.47L148.604 629.017L162.519 632.691C164.317 633.197 166.152 633.557 168.007 633.769C169.791 634.04 171.592 634.187 173.396 634.21C175.16 634.21 176.973 634.21 178.737 634.21C180.527 634.094 182.31 633.882 184.078 633.573C185.846 633.28 187.596 632.887 189.32 632.397C190.985 631.922 192.621 631.349 194.22 630.683C195.837 629.948 197.551 629.36 199.119 628.527L204.019 625.882C205.489 624.902 206.91 623.776 208.33 622.747C209.77 621.709 211.114 620.545 212.348 619.269C213.646 618.102 214.873 616.859 216.023 615.546C217.15 614.224 218.228 612.852 219.306 611.481C220.417 610.144 221.416 608.719 222.294 607.219L224.94 602.81C225.773 601.292 226.361 599.675 227.096 597.912C227.831 596.148 228.468 594.777 229.105 593.013C227.978 594.336 226.9 595.609 225.92 596.981C224.94 598.353 223.813 600.067 222.784 601.39Z"
        fill="#FFFFFF" />
    <path
        d="M620.778 517.527L639.739 530.459C499.758 661.543 364.579 644.79 296.082 617.212C289.174 614.42 282.951 611.529 277.415 608.639C270.52 605.091 263.961 600.927 257.816 596.197C255.452 593.941 253.525 591.267 252.133 588.311C251.3 586.253 247.233 577.142 246.596 574.889L243.216 565.092L240.178 555.295L238.659 550.396L237.385 545.498C236.552 542.167 235.572 538.885 234.837 535.701L232.682 525.61C231.947 522.23 231.506 518.801 230.918 515.421L230.085 510.522L229.448 505.624C229.056 502.195 228.517 498.815 228.321 495.386C228.125 491.957 227.684 488.528 227.537 485.099L227.243 474.812V464.525C227.243 461.096 227.635 457.716 227.831 454.287C228.027 450.858 228.566 447.479 228.909 444.099C229.252 440.719 229.938 437.339 230.428 433.959C230.918 430.579 231.751 427.248 232.437 424.162C233.123 421.076 234.102 417.5 234.984 414.365C236.843 407.818 239.051 401.375 241.599 395.064C244.124 388.751 247.003 382.586 250.222 376.597C253.518 370.664 257.149 364.923 261.099 359.403C264.96 353.562 269.286 348.042 274.034 342.895C278.586 338.192 283.724 334.092 289.321 330.698L291.379 329.62H292.016L292.849 329.376C294.169 328.982 295.537 328.767 296.915 328.739C299.95 328.666 302.977 329.08 305.881 329.963C308.864 330.832 311.727 332.066 314.407 333.637C316.841 334.995 318.935 336.888 320.531 339.173L325.823 347.99L328.322 338.193C329.561 333.298 329.877 328.214 329.252 323.203C328.574 318.252 327.067 313.449 324.794 308.998C320.2 300.555 313.971 293.112 306.469 287.101C304.657 285.534 302.942 284.162 300.884 282.693C298.826 281.223 297.356 280.097 295.151 278.823C291.115 276.28 286.87 274.084 282.461 272.259C273.74 268.634 264.823 266.479 256.592 263.687C252.511 262.297 248.519 260.661 244.637 258.788C240.796 256.9 237.095 254.74 233.564 252.322C231.849 251.195 229.938 249.824 228.125 248.55L222.441 244.68L211.368 237.137C204.019 232.238 196.67 226.85 189.957 221.265C183.245 215.681 176.385 209.901 169.918 203.827C163.45 197.753 157.669 191.042 151.887 184.184C150.026 182.175 148.262 180.02 146.449 177.914L142.284 173.015C139.785 169.929 137.385 166.843 134.984 163.708C129.447 156.752 124.45 149.355 119.599 142.057C117.198 138.334 114.7 134.562 112.593 130.741C110.486 126.92 108.134 123.099 106.027 119.181C101.814 111.392 97.747 103.456 94.0723 95.3739C92.2105 91.3081 90.2996 87.2914 88.6338 83.1766C86.9679 79.0619 85.1061 74.9961 83.7342 70.8324C80.4514 62.6029 77.4627 54.1775 74.6699 45.752C73.298 41.4903 71.8282 37.2776 70.6033 33.0159L66.8796 20.1329L60.8531 0L58.4033 20.5247C57.4234 28.7052 56.9824 36.6408 56.7374 44.6744C56.4925 52.7079 56.4925 60.6925 56.7374 68.6771C57.3209 84.6726 58.8424 100.62 61.2941 116.437C66.0704 148.111 75.119 178.992 88.1928 208.235C91.4755 215.534 95.1012 222.931 98.9719 229.642C102.843 236.353 106.958 243.505 111.466 250.118C120.402 263.357 130.45 275.812 141.5 287.346C146.988 293.078 152.965 298.809 158.943 303.707C164.92 308.606 171.192 313.896 177.512 318.697C183.833 323.497 190.545 327.808 197.356 331.923C204.166 336.038 211.123 339.858 218.13 343.483C211.221 339.564 204.411 335.548 197.846 331.139C191.28 326.73 184.862 322.077 178.59 317.276C172.319 312.476 166.292 307.479 160.56 301.895C154.827 296.311 149.193 290.971 143.95 285.093C133.348 273.429 123.789 260.857 115.386 247.521C106.972 234.249 99.601 220.345 93.3374 205.933C81.0233 177.019 72.6994 146.565 68.5944 115.409C66.4204 99.8854 65.1444 84.2495 64.7728 68.5791C64.7728 61.0354 64.7728 53.5407 64.7728 45.997C70.5053 77.4944 100.148 205.149 225.381 271.867C225.381 271.867 273.25 294.596 239.737 344.806C239.737 344.806 171.143 461.586 234.2 568.912C236.797 573.321 239.59 577.73 242.628 582.089C243.363 583.069 244.539 584.784 245.813 586.596C248.826 590.828 252.099 594.868 255.612 598.695C263.802 606.02 272.389 612.888 281.335 619.269C471.194 754.958 672.812 550.347 672.812 550.347L696.624 562.74C696.624 562.74 721.121 461.684 720.779 461.929C657.378 494.994 620.778 517.527 620.778 517.527Z"
        fill="#FFFFFF" />
    <defs>
        <linearGradient id="paint0_linear_537_156" x1="3623" y1="397.999" x2="859" y2="398"
            gradientUnits="userSpaceOnUse">
            <stop stop-color="#0052AF" />
            <stop offset="1" stop-color="#FFFFFF" />
        </linearGradient>
        <linearGradient id="paint1_linear_537_156" x1="3623" y1="397.999" x2="859" y2="398"
            gradientUnits="userSpaceOnUse">
            <stop stop-color="#0052AF" />
            <stop offset="1" stop-color="#FFFFFF" />
        </linearGradient>
        <linearGradient id="paint2_linear_537_156" x1="3623" y1="397.999" x2="859" y2="398"
            gradientUnits="userSpaceOnUse">
            <stop stop-color="#0052AF" />
            <stop offset="1" stop-color="#FFFFFF" />
        </linearGradient>
        <linearGradient id="paint3_linear_537_156" x1="3623" y1="397.999" x2="859" y2="398"
            gradientUnits="userSpaceOnUse">
            <stop stop-color="#0052AF" />
            <stop offset="1" stop-color="#FFFFFF" />
        </linearGradient>
        <linearGradient id="paint4_linear_537_156" x1="3623" y1="397.999" x2="859" y2="398"
            gradientUnits="userSpaceOnUse">
            <stop stop-color="#0052AF" />
            <stop offset="1" stop-color="#FFFFFF" />
        </linearGradient>
        <linearGradient id="paint5_linear_537_156" x1="3623" y1="397.999" x2="859" y2="398"
            gradientUnits="userSpaceOnUse">
            <stop stop-color="#0052AF" />
            <stop offset="1" stop-color="#FFFFFF" />
        </linearGradient>
    </defs>
</svg>